<?xml version="1.0" standalone="no"?>
<!DOCTYPE svg PUBLIC "-//W3C//DTD SVG 20010904//EN"
 "http://www.w3.org/TR/2001/REC-SVG-20010904/DTD/svg10.dtd">
<svg version="1.0" xmlns="http://www.w3.org/2000/svg"
 width="576.000000pt" height="576.000000pt" viewBox="0 0 576.000000 576.000000"
 preserveAspectRatio="xMidYMid meet">

<g transform="translate(0.000000,576.000000) scale(0.100000,-0.100000)"
fill="#000000" stroke="none">
<path d="M0 2880 l0 -2880 489 0 c269 0 502 3 519 6 27 6 29 8 17 21 -8 8 -15
22 -15 31 -1 9 -12 37 -25 62 l-23 45 -21 -48 c-12 -27 -26 -47 -32 -45 -17 6
-49 99 -46 133 2 17 18 60 35 97 18 37 32 77 32 88 0 11 6 31 14 43 8 12 17
43 20 69 5 32 13 48 24 52 9 2 6 3 -8 2 -14 -1 -30 -5 -37 -9 -8 -5 -15 5 -22
30 -10 38 -50 87 -104 130 l-28 22 16 103 c9 57 28 159 41 228 13 69 40 213
60 320 69 373 78 406 162 573 71 141 83 158 175 254 55 57 104 103 110 103 6
0 52 25 102 55 126 76 655 292 860 351 62 18 120 15 120 -6 0 -10 -9 -14 -27
-13 -16 1 -28 -2 -28 -7 0 -14 41 -23 53 -11 6 6 17 11 25 11 15 0 51 -39 52
-56 0 -15 45 -55 53 -47 4 3 7 1 7 -5 0 -7 7 -12 15 -12 8 0 15 5 15 11 0 6 7
17 16 26 12 12 20 13 40 5 23 -11 24 -16 24 -106 0 -66 4 -96 13 -99 8 -4 7
-6 -4 -6 -8 -1 -53 24 -100 55 -82 55 -83 56 -49 18 46 -50 58 -59 103 -81 44
-21 49 -36 53 -153 1 -47 5 -106 9 -132 l7 -48 -33 0 c-38 0 -92 -29 -111 -59
-12 -20 -12 -20 -35 1 -33 31 -81 18 -149 -42 -34 -30 -67 -50 -81 -50 -13 0
-34 -6 -46 -14 -12 -7 -49 -19 -82 -26 -33 -6 -90 -21 -126 -31 -60 -17 -67
-22 -72 -48 l-6 -29 -38 34 c-21 19 -44 33 -53 32 -8 -2 -35 -33 -60 -70 -25
-37 -62 -83 -83 -102 -38 -35 -39 -37 -32 -88 3 -29 12 -75 20 -103 7 -27 20
-104 30 -170 9 -66 22 -153 30 -194 9 -54 10 -81 2 -98 -18 -40 -37 -21 -37
37 0 35 -39 164 -48 156 -10 -10 -10 -96 0 -96 5 0 8 -17 7 -37 -2 -43 9 -102
22 -119 10 -12 -35 -64 -56 -64 -19 0 -45 -35 -45 -61 0 -33 -31 -76 -125
-174 -22 -23 -55 -58 -73 -79 -18 -20 -37 -34 -43 -30 -8 4 -9 -1 -4 -17 4
-17 4 -20 -3 -10 -9 12 -14 12 -35 -2 -29 -19 -54 -69 -67 -134 -5 -26 -15
-66 -23 -88 -8 -22 -15 -72 -16 -111 -2 -61 -6 -88 -22 -154 -4 -13 31 -15
262 -18 l266 -2 28 27 c43 44 73 86 90 129 l16 39 -38 -40 c-76 -80 -114 -103
-142 -86 -11 7 -7 19 20 61 29 45 37 51 62 47 23 -3 33 2 52 30 16 24 25 30
29 21 5 -10 7 -10 12 0 3 6 11 9 17 5 7 -3 9 -2 4 2 -4 5 0 19 8 31 8 13 16
32 18 43 2 10 9 26 16 35 7 8 11 21 8 28 -4 8 -6 7 -6 -4 -1 -10 -5 -18 -11
-18 -16 0 -11 18 9 32 10 7 19 18 21 23 5 22 60 165 71 188 19 36 34 62 47 76
8 8 11 22 9 33 -3 10 -1 16 3 13 12 -7 33 32 25 45 -3 6 -1 10 5 10 17 0 40
26 32 35 -4 5 -2 5 4 2 11 -6 34 13 181 150 74 69 101 102 132 162 40 79 62
161 42 161 -15 0 -14 51 1 100 9 26 19 40 30 40 17 0 28 29 43 115 4 22 13 55
21 73 l14 34 26 -21 c15 -12 33 -21 40 -21 13 0 18 -13 28 -72 4 -24 17 -46
36 -62 28 -23 45 -28 145 -39 22 -3 18 -4 -13 -6 -146 -5 118 -129 375 -176
117 -21 182 -49 246 -103 119 -101 224 -153 366 -183 52 -11 106 -29 121 -39
33 -23 95 -103 164 -209 28 -44 74 -112 101 -153 55 -79 85 -139 85 -166 0 -9
9 -32 20 -50 11 -18 20 -37 20 -43 0 -5 18 -38 39 -72 25 -38 36 -64 29 -68
-6 -4 15 -25 47 -49 63 -47 99 -80 88 -81 -5 0 3 -5 17 -11 36 -16 452 -21
509 -6 33 8 51 8 76 -1 18 -6 39 -9 48 -6 8 4 35 37 60 73 93 142 99 173 37
228 -27 24 -40 45 -40 62 l0 25 -21 -27 c-11 -14 -25 -23 -31 -20 -6 4 -5 10
3 16 11 7 9 8 -6 6 -20 -4 -21 -10 -9 -62 7 -28 6 -29 -27 -23 -19 3 -28 3
-21 0 21 -8 13 -25 -9 -18 -19 6 -20 4 -14 -27 3 -18 9 -41 12 -51 4 -16 2
-17 -15 -8 -29 15 -40 14 -44 -6 -3 -10 -8 0 -12 23 -5 30 -2 53 13 93 12 28
21 53 21 55 0 2 -11 15 -25 30 -14 15 -25 34 -25 42 0 7 -4 14 -10 14 -28 0
-80 75 -121 175 -38 94 -53 116 -44 62 l7 -38 -34 21 c-20 11 -43 29 -53 40
-10 11 -22 20 -27 20 -5 0 -46 25 -92 55 -45 30 -87 55 -93 55 -6 0 -23 14
-37 31 -14 17 -26 28 -26 25 0 -3 -11 6 -25 19 -13 14 -34 25 -46 25 -15 0
-19 4 -15 16 5 13 1 15 -19 10 -18 -5 -25 -2 -25 8 0 8 -20 22 -44 31 -42 16
-87 60 -114 111 -10 18 -8 23 14 33 14 6 29 9 34 6 6 -4 20 16 20 28 0 8 -63
-4 -93 -17 -36 -16 -39 -16 -60 1 -22 18 -33 53 -16 53 5 0 6 7 2 17 -5 13 -2
15 15 11 12 -4 22 -2 22 2 0 20 -36 70 -51 70 -9 0 -24 9 -34 20 -10 11 -20
18 -23 15 -3 -3 3 -14 13 -25 27 -30 6 -47 -25 -20 -13 11 -27 20 -32 20 -4 0
-8 5 -8 11 0 6 9 8 20 4 39 -12 21 33 -42 106 -35 40 -87 104 -117 143 -64 85
-101 114 -201 151 -41 16 -79 32 -85 37 -14 13 21 41 103 83 63 32 73 41 68
59 -16 62 -49 170 -72 237 -23 68 -30 78 -63 92 -20 9 -52 32 -73 52 -40 38
-105 81 -185 121 -29 14 -53 30 -53 34 0 4 9 15 21 26 27 24 73 20 122 -12 22
-14 41 -24 43 -21 2 2 7 93 9 202 3 109 7 200 9 202 2 3 73 -19 158 -47 84
-28 186 -58 227 -66 41 -8 79 -18 85 -23 13 -9 177 -59 321 -96 108 -28 285
-109 285 -130 0 -7 18 -24 39 -38 78 -52 134 -123 162 -206 14 -42 33 -90 42
-108 9 -17 28 -69 41 -115 17 -58 39 -105 70 -151 61 -87 78 -127 130 -309 35
-121 63 -191 135 -338 50 -102 121 -247 158 -323 l68 -137 135 2 c74 2 141 -1
149 -6 12 -8 13 160 8 1180 -4 712 -10 1201 -16 1219 l-9 30 -1 -27 c-1 -16
-5 -28 -9 -28 -4 0 -6 17 -4 38 2 28 1 33 -7 22 -6 -8 -11 -24 -12 -35 -1 -18
-2 -18 -6 -2 -4 14 -11 17 -27 13 -35 -9 -39 5 -10 31 15 13 25 25 22 28 -6 6
-68 -17 -68 -26 0 -3 -20 -2 -45 4 -25 6 -45 14 -45 19 0 11 38 10 45 -2 9
-15 35 -12 35 4 0 18 -58 38 -96 34 -20 -2 -29 2 -32 15 -2 11 3 17 15 18 10
0 6 4 -12 10 -19 5 -31 5 -36 -3 -4 -6 -13 -8 -20 -5 -9 3 -1 11 21 20 19 9
31 17 25 17 -49 6 -70 20 -70 47 0 31 -115 62 -238 64 -59 1 -110 6 -113 10
-3 5 2 9 10 9 12 0 16 11 16 41 0 36 -2 41 -20 36 -15 -4 -22 1 -26 19 -4 14
-1 31 6 39 11 13 8 15 -17 15 -16 0 -33 -4 -38 -8 -6 -5 -29 -14 -52 -21 -32
-9 -43 -17 -43 -31 0 -11 -4 -20 -10 -20 -5 0 -10 4 -10 9 0 6 -13 18 -30 28
-16 9 -30 23 -30 30 0 7 -9 13 -20 13 -17 0 -20 7 -20 44 0 36 -4 46 -20 51
-12 4 -20 15 -20 30 0 18 -7 24 -37 30 -21 4 -41 12 -45 18 -5 9 -10 9 -20 -1
-10 -10 -17 -7 -35 15 l-22 28 -1 -28 c0 -27 -1 -28 -17 -11 -17 16 -18 16
-21 1 -2 -9 -10 -17 -18 -17 -8 0 -14 -5 -14 -11 0 -24 -29 21 -35 55 -6 30
-11 36 -32 36 -21 0 -23 3 -17 23 14 43 12 151 -2 172 -8 11 -14 26 -14 35 0
13 1 13 10 0 8 -13 10 -12 10 3 0 9 -3 17 -7 17 -5 0 -17 19 -28 41 -10 23
-29 45 -42 50 -19 7 -22 13 -16 40 3 17 1 34 -4 38 -6 3 -15 78 -21 166 -9
142 -11 219 -9 487 0 41 -5 73 -13 83 -10 12 -10 19 -2 27 15 15 16 137 2 174
-6 15 -11 48 -12 73 0 26 -7 54 -15 63 -8 9 -12 21 -9 27 4 5 -3 34 -14 63
-11 29 -20 70 -20 91 0 22 -8 52 -17 68 -20 33 -6 62 17 34 8 -10 9 -15 1 -15
-6 0 -11 -5 -11 -10 0 -19 39 14 42 35 2 11 10 19 18 18 8 -2 21 9 27 24 18
37 17 40 -12 47 -14 4 -25 13 -25 20 0 10 -28 15 -116 21 -63 4 -118 5 -120 2
-3 -3 2 -128 10 -279 9 -150 23 -381 31 -513 21 -356 27 -581 14 -526 -7 29
-14 40 -19 31 -6 -10 -9 -10 -13 1 -4 9 -6 7 -7 -6 l-1 -20 -9 20 c-8 19 -9
19 -9 -2 -1 -16 -6 -21 -16 -17 -8 4 -15 2 -15 -4 0 -6 11 -9 25 -7 17 1 25
-3 25 -12 0 -9 -6 -13 -15 -9 -11 4 -15 -1 -15 -19 0 -14 4 -25 10 -25 5 0 7
7 4 15 -4 9 0 15 10 15 9 0 16 -8 16 -20 0 -11 5 -20 11 -20 8 0 8 -5 -1 -15
-7 -8 -22 -15 -33 -15 -19 0 -19 -1 -3 -19 10 -11 14 -25 9 -36 -6 -18 -7 -18
-14 1 -5 12 -8 -2 -10 -41 -2 -52 -3 -54 -6 -17 -2 23 -8 40 -12 38 -9 -6 -21
120 -20 208 1 46 3 55 9 36 l8 -25 1 28 c1 16 -4 38 -10 49 -8 15 -8 19 0 14
12 -8 13 -2 16 86 1 31 -1 55 -4 53 -4 -2 -15 3 -26 11 -19 14 -19 16 -2 46
16 27 16 33 3 47 -17 18 -28 124 -46 416 -6 94 -15 222 -20 285 -5 63 -10 143
-10 177 0 58 -12 86 -29 67 -4 -5 0 -146 10 -314 10 -168 18 -323 18 -345 l0
-40 -28 67 c-16 36 -47 89 -70 116 -43 51 -123 102 -159 102 -11 0 -27 7 -36
15 -8 8 -24 15 -36 15 -12 0 -31 5 -42 11 -19 10 -20 9 -16 -14 4 -22 3 -25
-12 -17 -10 5 -27 25 -38 44 -28 48 -74 70 -147 70 -33 1 -66 7 -73 14 -11 10
-11 12 1 12 10 0 14 11 13 38 -1 20 -3 59 -4 86 -2 38 -5 47 -17 42 -23 -9
-18 7 19 56 l35 45 -1630 2 -1629 1 0 -2880z m3064 2851 c-5 -3 -10 -22 -12
-41 -4 -58 -2 -57 -129 -58 -65 0 -109 2 -98 5 11 3 31 13 45 23 14 9 60 23
103 30 42 7 77 17 77 21 0 5 -6 7 -12 5 -7 -1 -9 -1 -4 2 4 2 3 8 -4 12 -7 4
-1 8 15 8 15 0 23 -3 19 -7z m37 -14 c-13 -13 -26 -3 -16 12 3 6 11 8 17 5 6
-4 6 -10 -1 -17z m-228 6 c-7 -2 -19 -2 -25 0 -7 3 -2 5 12 5 14 0 19 -2 13
-5z m-73 -6 c-10 -8 -90 -17 -90 -10 0 5 21 9 47 11 26 2 45 1 43 -1z m-128
-18 c-30 -12 -23 -22 28 -39 46 -15 67 -34 50 -45 -6 -4 -59 -11 -118 -16 -59
-5 -156 -14 -217 -19 -125 -12 -306 -27 -412 -34 -59 -4 -71 -2 -67 9 3 8 15
15 27 17 16 2 22 10 22 28 0 15 5 24 13 23 6 -2 12 1 12 7 0 6 5 10 10 10 6 0
10 -7 10 -15 0 -8 4 -15 8 -15 14 0 32 23 32 40 0 11 11 17 38 19 20 1 53 4
72 7 19 2 78 6 130 10 52 3 124 10 160 14 98 11 231 11 202 -1z m104 -8 c-3
-5 -19 -11 -36 -13 -36 -5 -27 8 10 15 14 2 26 5 28 6 2 0 1 -3 -2 -8z m51 3
c-3 -3 -12 -4 -19 -1 -8 3 -5 6 6 6 11 1 17 -2 13 -5z m50 -10 c-3 -3 -12 -4
-19 -1 -8 3 -5 6 6 6 11 1 17 -2 13 -5z m1292 -21 c0 -25 -1 -26 -9 -8 -12 27
-12 35 0 35 6 0 10 -12 9 -27z m-2159 -13 c-8 -5 -19 -10 -25 -10 -5 0 -3 5 5
10 8 5 20 10 25 10 6 0 3 -5 -5 -10z m-43 -37 c6 -16 -36 -28 -50 -14 -9 9 -8
14 3 21 19 12 42 9 47 -7z m-54 -70 c-7 -2 -19 -2 -25 0 -7 3 -2 5 12 5 14 0
19 -2 13 -5z m1442 -133 c3 -5 1 -10 -4 -10 -6 0 -11 5 -11 10 0 6 2 10 4 10
3 0 8 -4 11 -10z m-269 -50 c-39 -19 -56 -19 -56 2 0 5 7 8 15 5 8 -4 17 -2
20 3 4 6 18 10 33 10 24 0 23 -1 -12 -20z m29 -40 c-3 -5 -10 -10 -16 -10 -5
0 -9 5 -9 10 0 6 7 10 16 10 8 0 12 -4 9 -10z m485 -16 c7 -7 10 -21 8 -31 -4
-15 -7 -13 -18 10 -7 15 -19 27 -27 27 -7 0 -13 4 -13 9 0 13 37 2 50 -15z
m575 0 c9 -14 19 -40 21 -58 2 -17 7 -55 10 -83 5 -37 3 -58 -7 -69 -11 -14
-15 -10 -26 30 -10 33 -11 52 -3 65 13 25 13 44 0 36 -6 -4 -10 13 -11 42 -1
43 -2 45 -9 18 -8 -30 -8 -30 -9 8 -1 43 10 47 34 11z m-1555 -15 c0 -6 -4 -7
-10 -4 -5 3 -10 11 -10 16 0 6 5 7 10 4 6 -3 10 -11 10 -16z m857 1 c17 -10
16 -11 -2 -6 -11 3 -46 7 -77 8 -32 1 -58 5 -58 9 0 11 117 2 137 -11z m216
-23 c-7 -12 -33 13 -33 31 0 13 3 12 19 -4 10 -10 16 -23 14 -27z m-543 19 c0
-3 -4 -8 -10 -11 -5 -3 -10 -1 -10 4 0 6 5 11 10 11 6 0 10 -2 10 -4z m383
-13 c-7 -2 -19 -2 -25 0 -7 3 -2 5 12 5 14 0 19 -2 13 -5z m-278 -93 c-3 -5
-13 -10 -21 -10 -8 0 -12 5 -9 10 3 6 13 10 21 10 8 0 12 -4 9 -10z m400 -10
c3 -5 1 -10 -4 -10 -6 0 -11 5 -11 10 0 6 2 10 4 10 3 0 8 -4 11 -10z m-608
-42 c-3 -8 -6 -5 -6 6 -1 11 2 17 5 13 3 -3 4 -12 1 -19z m443 12 c11 -8 7 -9
-15 -4 -37 8 -45 14 -19 14 10 0 26 -5 34 -10z m-402 -63 c-6 -38 -28 -31 -28
8 0 33 2 36 15 25 9 -7 15 -22 13 -33z m447 13 c-4 -6 6 -10 22 -11 15 0 22
-3 16 -6 -7 -2 -13 -11 -13 -19 0 -8 -10 -14 -23 -14 -13 0 -34 -9 -47 -20
-13 -11 -27 -20 -31 -20 -9 0 -1 28 13 47 6 8 -1 11 -27 11 -19 0 -48 8 -64
19 l-29 18 94 2 c61 2 93 -1 89 -7z m72 -37 c-9 -2 -15 -9 -12 -14 4 -5 -1 -9
-11 -9 -13 0 -14 3 -4 15 7 8 20 14 29 14 13 -1 13 -2 -2 -6z m590 -25 c-3 -8
-6 -5 -6 6 -1 11 2 17 5 13 3 -3 4 -12 1 -19z m-1930 -24 c-3 -3 -12 -4 -19
-1 -8 3 -5 6 6 6 11 1 17 -2 13 -5z m1310 -30 c-3 -3 -12 -4 -19 -1 -8 3 -5 6
6 6 11 1 17 -2 13 -5z m-1707 -234 c0 -5 3 -17 6 -27 4 -13 3 -15 -4 -4 -7 10
-11 10 -17 1 -4 -7 -3 -15 2 -19 17 -10 35 -51 23 -51 -5 0 -10 4 -10 9 0 4
-11 7 -24 6 -21 -3 -25 2 -28 36 -2 28 0 39 10 39 7 0 11 4 8 8 -2 4 4 9 15 9
10 1 19 -2 19 -7z m-180 -40 c-7 -4 -9 -13 -5 -20 5 -9 4 -11 -3 -6 -16 10
-15 43 1 49 16 6 23 -13 7 -23z m248 5 c-3 -3 -9 2 -12 12 -6 14 -5 15 5 6 7
-7 10 -15 7 -18z m2015 -15 c3 -11 1 -23 -4 -26 -5 -3 -9 6 -9 20 0 31 6 34
13 6z m-3847 -63 c1 -12 7 -65 14 -117 17 -134 27 -234 24 -239 -9 -11 -24 16
-24 45 0 19 -5 65 -10 102 -20 128 -27 232 -16 232 6 0 12 -10 12 -23z m3689
3 c3 -5 14 -10 25 -10 12 0 17 -5 14 -18 -3 -9 2 -44 11 -77 10 -37 18 -119
22 -215 5 -141 4 -153 -10 -134 -9 11 -38 29 -64 38 -26 10 -67 27 -91 38 -28
13 -54 18 -72 14 -16 -3 -42 -2 -57 3 -15 5 -53 14 -83 21 -30 7 -66 21 -79
31 -13 11 -31 19 -40 19 -27 0 -61 30 -61 53 1 31 40 56 107 68 115 20 277 72
305 97 10 8 24 12 33 9 15 -6 20 12 16 56 -2 18 14 23 24 7z m-2225 -60 c0 -5
-5 -10 -11 -10 -5 0 -7 5 -4 10 3 6 8 10 11 10 2 0 4 -4 4 -10z m320 -14 c0
-3 -4 -8 -10 -11 -5 -3 -10 -1 -10 4 0 6 5 11 10 11 6 0 10 -2 10 -4z m2020
-100 c0 -3 -4 -8 -10 -11 -5 -3 -10 -1 -10 4 0 6 5 11 10 11 6 0 10 -2 10 -4z
m-2006 -21 c-10 -8 -26 -14 -34 -15 -8 0 -4 6 10 14 34 19 48 20 24 1z m2012
-72 c1 -27 6 -105 10 -175 6 -85 6 -128 -1 -128 -22 0 -38 18 -31 36 4 9 1 32
-5 51 -8 26 -8 46 1 81 6 26 12 73 11 106 0 50 4 76 12 76 1 0 3 -21 3 -47z
m163 -35 c-1 -41 -1 -42 -11 -15 -5 15 -7 34 -4 42 10 27 16 16 15 -27z m-42
-45 c-3 -10 -5 -4 -5 12 0 17 2 24 5 18 2 -7 2 -21 0 -30z m-3882 -78 c7 -51
3 -76 -10 -64 -11 11 -17 119 -7 119 6 0 14 -25 17 -55z m3922 23 c-3 -8 -6
-5 -6 6 -1 11 2 17 5 13 3 -3 4 -12 1 -19z m-110 -25 c-3 -10 -5 -4 -5 12 0
17 2 24 5 18 2 -7 2 -21 0 -30z m-692 -4 c10 -16 0 -21 -29 -13 -14 3 -23 10
-20 15 7 12 41 11 49 -2z m715 -68 c0 -6 -4 -13 -10 -16 -5 -3 -10 1 -10 9 0
9 5 16 10 16 6 0 10 -4 10 -9z m-235 -41 c3 -5 -1 -10 -9 -10 -9 0 -16 5 -16
10 0 6 4 10 9 10 6 0 13 -4 16 -10z m-3582 -47 c6 -36 3 -52 -8 -41 -11 11
-18 78 -8 78 6 0 13 -17 16 -37z m3827 17 c0 11 3 11 12 2 9 -9 8 -15 -7 -26
-25 -18 -35 -12 -28 15 4 16 8 17 14 7 7 -10 9 -10 9 2z m-51 -74 c-2 -2 -13
8 -23 22 l-19 27 24 -22 c12 -12 21 -24 18 -27z m-442 16 c15 -10 52 -91 53
-116 0 -12 5 -16 15 -12 9 3 15 0 15 -8 0 -7 13 -39 30 -72 28 -56 70 -95 102
-93 7 0 2 5 -12 10 -31 12 -80 75 -80 103 0 17 7 21 40 23 63 4 141 61 166
121 8 21 10 -2 10 -106 -1 -107 -4 -135 -16 -142 -21 -14 4 -13 34 1 14 7 38
30 53 52 l28 40 7 -43 c4 -25 3 -48 -2 -55 -6 -7 -6 -24 0 -46 6 -19 10 -68 9
-109 -1 -41 1 -111 4 -155 l6 -80 -11 75 c-10 74 -10 74 -29 52 l-18 -23 -21
21 c-20 20 -22 61 -11 184 1 4 8 6 16 2 10 -3 15 1 15 12 0 15 2 15 10 2 7
-11 10 -7 10 17 0 33 -14 51 -25 33 -3 -5 -14 -10 -24 -10 -16 0 -41 -37 -41
-60 0 -5 -11 -21 -24 -35 -28 -30 -46 -97 -39 -143 3 -19 1 -43 -5 -55 -6 -12
-21 -53 -33 -92 -12 -38 -31 -88 -41 -110 -17 -35 -18 -36 -13 -10 3 17 13 85
23 152 15 102 16 128 5 159 -18 51 -31 64 -64 64 -28 0 -40 15 -18 22 7 2 8
15 2 38 -7 30 -17 39 -68 64 -66 32 -90 34 -151 16 -41 -13 -94 -7 -94 10 0
22 45 50 82 50 43 0 42 -1 27 37 -10 26 -7 31 28 60 37 32 32 44 -9 22 -24
-13 -23 -6 9 89 17 51 26 59 50 44z m571 -86 c-13 -15 -16 -4 -10 34 l6 35 6
-30 c4 -16 3 -34 -2 -39z m-85 34 c3 -11 1 -18 -4 -14 -5 3 -9 12 -9 20 0 20
7 17 13 -6z m41 -6 c8 -22 -4 -40 -15 -23 -11 18 -11 39 0 39 5 0 12 -7 15
-16z m-87 -10 c-3 -3 -12 -4 -19 -1 -8 3 -5 6 6 6 11 1 17 -2 13 -5z m-549
-54 c-9 -13 -16 -16 -23 -9 -7 7 -5 13 5 19 24 15 31 11 18 -10z m-24 -29 c3
-5 -1 -11 -9 -14 -9 -4 -12 -1 -8 9 6 16 10 17 17 5z m-34 -29 c0 -8 -48 -26
-95 -36 -12 -2 -6 -4 12 -5 l33 -1 -21 -40 c-12 -23 -19 -51 -16 -65 6 -32
-12 -44 -30 -20 -14 20 -73 26 -104 12 -11 -6 -19 1 -29 28 -11 27 -21 36 -46
41 -18 3 -39 3 -46 -1 -7 -3 -2 3 11 14 13 12 33 21 46 21 12 0 28 7 35 15 12
15 66 15 104 -1 14 -5 17 -3 14 7 -4 10 12 17 61 25 36 6 67 12 69 13 1 0 2
-3 2 -7z m-90 -266 c0 -75 -32 -116 -65 -82 -22 22 -18 44 14 77 36 35 51 37
51 5z m384 -59 c46 -60 56 -98 50 -189 -7 -115 -17 -139 -25 -59 -5 52 -11 69
-31 85 -14 12 -39 42 -56 68 -30 46 -30 47 -9 50 17 2 23 11 25 41 4 46 14 47
46 4z m306 -102 c0 -25 -3 -45 -8 -45 -4 0 -6 20 -4 45 2 25 6 45 8 45 2 0 4
-20 4 -45z m7 -147 c-2 -13 -4 -5 -4 17 -1 22 1 32 4 23 2 -10 2 -28 0 -40z
m-412 -18 c23 -26 4 -26 -26 0 -18 15 -20 19 -8 20 9 0 24 -9 34 -20z m30
-100 c3 -5 1 -10 -4 -10 -6 0 -11 5 -11 10 0 6 2 10 4 10 3 0 8 -4 11 -10z
m-140 -40 c14 -5 55 -10 90 -11 36 -1 66 -5 66 -10 1 -5 3 -13 4 -19 1 -5 3
-20 4 -32 l2 -23 11 23 c6 12 15 22 20 22 4 0 3 -10 -4 -22 -21 -36 -40 -58
-48 -53 -4 3 -7 -3 -6 -12 0 -9 -5 -18 -13 -21 -8 -3 -11 0 -7 6 8 14 -45 72
-66 72 -24 0 -99 36 -91 43 3 4 2 7 -4 7 -6 0 -9 9 -6 20 6 23 11 24 48 10z
m-260 -49 c-6 -5 -36 -6 -70 -1 l-60 7 70 2 c42 0 65 -3 60 -8z m163 2 c-10
-2 -26 -2 -35 0 -10 3 -2 5 17 5 19 0 27 -2 18 -5z m-525 -10 c-7 -2 -19 -2
-25 0 -7 3 -2 5 12 5 14 0 19 -2 13 -5z m2120 -124 c-4 -13 -9 -17 -16 -10
-12 12 -1 45 12 37 5 -3 7 -15 4 -27z m-1376 -926 c-3 -10 -5 -4 -5 12 0 17 2
24 5 18 2 -7 2 -21 0 -30z m-909 -119 c4 -32 28 -64 49 -64 18 0 17 -36 -2
-43 -17 -7 -27 6 -19 26 3 10 -7 19 -35 31 -23 9 -41 22 -41 30 0 8 -8 16 -17
18 -14 3 -12 7 12 21 39 21 49 17 53 -19z m-163 -41 c-27 -62 -54 -153 -55
-179 0 -23 -13 -48 -47 -88 -50 -59 -60 -65 -69 -41 -4 8 -14 15 -23 15 -9 0
-22 5 -29 12 -13 13 -16 50 -5 62 13 13 33 82 33 117 0 49 39 85 115 103 82
20 89 19 80 -1z m-505 -163 c0 -5 -9 -10 -21 -10 -11 0 -17 5 -14 10 3 6 13
10 21 10 8 0 14 -4 14 -10z m-60 -20 c0 -5 -5 -10 -11 -10 -5 0 -7 5 -4 10 3
6 8 10 11 10 2 0 4 -4 4 -10z m-20 -47 c0 -19 -26 -73 -37 -77 -18 -7 -17 29
3 59 15 23 34 33 34 18z m281 -436 c-11 -24 -30 -70 -42 -101 -35 -94 -44 -69
-44 120 0 164 1 170 25 205 14 20 34 52 45 70 l19 34 9 -142 c8 -131 7 -145
-12 -186z m1219 263 c0 -5 -17 -10 -37 -9 -34 1 -35 2 -13 9 36 11 50 11 50 0z
m-1315 -730 c-3 -5 -11 -10 -16 -10 -6 0 -7 5 -4 10 3 6 11 10 16 10 6 0 7 -4
4 -10z m-1140 -160 c4 -6 11 -8 16 -5 5 4 9 1 9 -4 0 -6 -8 -11 -19 -11 -24 0
-73 -25 -64 -33 3 -4 -3 -9 -13 -13 -10 -3 -35 -14 -54 -24 -19 -9 -48 -21
-64 -24 -39 -10 -22 -24 34 -28 62 -4 52 -22 -14 -26 -42 -2 -55 1 -60 13 -9
26 10 51 61 81 162 92 158 91 168 74z m-5 -50 c-20 -13 -33 -13 -25 0 3 6 14
10 23 10 15 0 15 -2 2 -10z m-60 -167 c0 -43 -12 -63 -37 -63 -13 0 -34 -5
-45 -11 -38 -21 -38 6 1 49 40 44 81 56 81 25z"/>
<path d="M2923 5653 c9 -2 23 -2 30 0 6 3 -1 5 -18 5 -16 0 -22 -2 -12 -5z"/>
<path d="M2140 5640 c0 -5 5 -10 10 -10 6 0 10 5 10 10 0 6 -4 10 -10 10 -5 0
-10 -4 -10 -10z"/>
<path d="M3912 3550 c0 -14 2 -19 5 -12 2 6 2 18 0 25 -3 6 -5 1 -5 -13z"/>
<path d="M3930 3530 c0 -5 5 -10 10 -10 6 0 10 5 10 10 0 6 -4 10 -10 10 -5 0
-10 -4 -10 -10z"/>
<path d="M4401 4911 l-21 -28 28 -1 c57 -1 106 37 66 52 -31 12 -53 5 -73 -23z"/>
<path d="M4021 4854 c0 -11 3 -14 6 -6 3 7 2 16 -1 19 -3 4 -6 -2 -5 -13z"/>
<path d="M4020 4769 c0 -11 4 -18 10 -14 5 3 7 12 3 20 -7 21 -13 19 -13 -6z"/>
<path d="M4030 4570 c0 -5 5 -10 10 -10 6 0 10 5 10 10 0 6 -4 10 -10 10 -5 0
-10 -4 -10 -10z"/>
<path d="M3972 4290 c0 -14 2 -19 5 -12 2 6 2 18 0 25 -3 6 -5 1 -5 -13z"/>
<path d="M4618 3923 c7 -3 16 -2 19 1 4 3 -2 6 -13 5 -11 0 -14 -3 -6 -6z"/>
<path d="M4590 3899 c0 -5 5 -7 10 -4 6 3 10 8 10 11 0 2 -4 4 -10 4 -5 0 -10
-5 -10 -11z"/>
<path d="M4560 3860 c0 -5 7 -10 15 -10 8 0 15 5 15 10 0 6 -7 10 -15 10 -8 0
-15 -4 -15 -10z"/>
<path d="M5120 3509 c0 -5 5 -7 10 -4 6 3 10 8 10 11 0 2 -4 4 -10 4 -5 0 -10
-5 -10 -11z"/>
<path d="M5208 3463 c7 -3 16 -2 19 1 4 3 -2 6 -13 5 -11 0 -14 -3 -6 -6z"/>
<path d="M2533 2216 c59 -40 148 -88 154 -83 8 9 -8 48 -18 42 -5 -4 -9 -1 -9
4 0 6 -8 11 -18 11 -10 0 -28 7 -40 16 -12 8 -26 13 -31 10 -5 -4 -11 -2 -13
2 -1 5 -16 12 -33 16 -30 7 -29 7 8 -18z"/>
<path d="M2188 2023 c-14 -16 -33 -40 -43 -55 -17 -28 -17 -28 6 -28 13 1 48
13 78 29 l53 27 -25 27 c-30 34 -37 34 -69 0z"/>
<path d="M1302 1793 c-13 -3 -22 -8 -20 -11 2 -4 41 -65 89 -137 47 -71 95
-147 108 -168 12 -20 27 -35 32 -32 5 4 6 0 4 -8 -5 -10 31 -66 61 -96 6 -6
74 -10 74 -4 0 9 -34 78 -41 83 -3 3 -14 19 -23 37 -9 17 -25 38 -36 46 -11 8
-33 34 -48 58 -16 24 -37 57 -48 73 -10 16 -24 36 -29 45 -45 71 -85 122 -94
120 -3 -1 -16 -4 -29 -6z"/>
<path d="M1650 1316 c0 -14 49 -107 49 -94 1 24 -29 98 -40 98 -5 0 -9 -2 -9
-4z"/>
<path d="M5663 733 c9 -2 25 -2 35 0 9 3 1 5 -18 5 -19 0 -27 -2 -17 -5z"/>
<path d="M3040 530 c0 -5 5 -10 11 -10 5 0 7 5 4 10 -3 6 -8 10 -11 10 -2 0
-4 -4 -4 -10z"/>
<path d="M3075 530 c-3 -5 -1 -10 4 -10 6 0 11 5 11 10 0 6 -2 10 -4 10 -3 0
-8 -4 -11 -10z"/>
<path d="M3192 520 c0 -14 2 -19 5 -12 2 6 2 18 0 25 -3 6 -5 1 -5 -13z"/>
<path d="M3120 479 c0 -5 5 -7 10 -4 6 3 10 8 10 11 0 2 -4 4 -10 4 -5 0 -10
-5 -10 -11z"/>
<path d="M3147 454 c-3 -3 -3 -13 1 -22 5 -15 4 -15 -11 -3 -21 17 -23 -2 -2
-23 9 -9 15 -33 15 -62 0 -39 2 -45 15 -34 8 6 19 9 25 5 5 -3 10 1 10 9 0 9
3 16 8 16 4 0 7 13 8 30 1 19 -3 27 -10 23 -6 -4 -4 2 4 12 12 15 12 17 1 10
-11 -6 -13 -4 -8 8 4 12 2 14 -10 10 -9 -4 -21 1 -28 10 -7 9 -15 14 -18 11z
m28 -44 c3 -5 1 -10 -4 -10 -6 0 -11 5 -11 10 0 6 2 10 4 10 3 0 8 -4 11 -10z"/>
<path d="M5512 453 c-29 -2 -61 -10 -70 -18 -60 -49 -66 -57 -54 -61 6 -3 12
-19 12 -36 l0 -30 118 7 c64 5 125 8 135 7 15 -1 17 9 17 69 l0 69 -52 -2
c-29 -1 -77 -3 -106 -5z m-97 -63 c-3 -5 -11 -10 -16 -10 -6 0 -7 5 -4 10 3 6
11 10 16 10 6 0 7 -4 4 -10z"/>
<path d="M3107 330 c-3 -12 0 -20 8 -20 8 0 11 8 8 20 -3 11 -7 20 -8 20 -1 0
-5 -9 -8 -20z"/>
<path d="M1977 314 c-3 -16 -1 -57 4 -93 6 -41 6 -84 -1 -120 -17 -93 -15
-101 24 -101 43 0 95 18 79 28 -7 4 -15 32 -19 62 -4 30 -13 64 -20 76 -8 11
-17 43 -20 70 -4 27 -13 56 -20 64 -7 8 -13 19 -12 23 0 22 -10 15 -15 -9z"/>
<path d="M1846 203 c-6 -14 -5 -15 5 -6 7 7 10 15 7 18 -3 3 -9 -2 -12 -12z"/>
<path d="M4366 183 c7 -50 -6 -82 -17 -43 -6 20 -7 17 -8 -17 -1 -24 4 -44 12
-47 8 -4 9 -8 1 -11 -6 -3 -9 -16 -7 -28 4 -19 12 -24 45 -26 l41 -2 -7 56
c-6 50 -43 146 -47 120 0 -5 -5 1 -10 15 -6 18 -7 14 -3 -17z"/>
<path d="M5640 10 l-65 -7 93 -1 c56 -1 92 2 92 8 0 11 -15 11 -120 0z"/>
</g>
</svg>
